<svg xmlns="http://www.w3.org/2000/svg" width="26.394" height="26.394" viewBox="0 0 26.394 26.394"><defs><style>.a{fill:#e2e2e2;}</style></defs><path class="a" d="M23.566,2.25H2.828A2.828,2.828,0,0,0,0,5.078V25.816a2.828,2.828,0,0,0,2.828,2.828h8.086V19.67H7.2V15.447h3.712V12.228c0-3.662,2.18-5.684,5.518-5.684a22.486,22.486,0,0,1,3.271.285v3.594H17.861A2.112,2.112,0,0,0,15.48,12.7v2.742h4.052l-.648,4.224h-3.4v8.973h8.086a2.828,2.828,0,0,0,2.828-2.828V5.078A2.828,2.828,0,0,0,23.566,2.25Z" transform="translate(0 -2.25)"/></svg>