<svg xmlns="http://www.w3.org/2000/svg" width="26.408" height="26.402" viewBox="0 0 26.408 26.402"><defs><style>.a{fill:#e2e2e2;}</style></defs><path class="a" d="M13.2,8.67a6.769,6.769,0,1,0,6.769,6.769A6.759,6.759,0,0,0,13.2,8.67Zm0,11.17a4.4,4.4,0,1,1,4.4-4.4,4.409,4.409,0,0,1-4.4,4.4ZM21.827,8.393a1.579,1.579,0,1,1-1.579-1.579A1.575,1.575,0,0,1,21.827,8.393ZM26.31,10a7.814,7.814,0,0,0-2.133-5.532A7.865,7.865,0,0,0,18.645,2.33c-2.18-.124-8.713-.124-10.893,0A7.854,7.854,0,0,0,2.22,4.457,7.839,7.839,0,0,0,.088,9.989c-.124,2.18-.124,8.713,0,10.893A7.814,7.814,0,0,0,2.22,26.415a7.875,7.875,0,0,0,5.532,2.133c2.18.124,8.713.124,10.893,0a7.814,7.814,0,0,0,5.532-2.133,7.865,7.865,0,0,0,2.133-5.532c.124-2.18.124-8.708,0-10.887ZM23.494,23.221a4.456,4.456,0,0,1-2.51,2.51c-1.738.689-5.862.53-7.783.53s-6.05.153-7.783-.53a4.456,4.456,0,0,1-2.51-2.51c-.689-1.738-.53-5.862-.53-7.783s-.153-6.05.53-7.783a4.456,4.456,0,0,1,2.51-2.51c1.738-.689,5.862-.53,7.783-.53s6.05-.153,7.783.53a4.456,4.456,0,0,1,2.51,2.51c.689,1.738.53,5.862.53,7.783S24.183,21.489,23.494,23.221Z" transform="translate(0.005 -2.238)"/></svg>